<?xml version="1.0" encoding="UTF-8" standalone="no"?>
<!-- Created with Inkscape (http://www.inkscape.org/) -->

<svg
   xmlns:dc="http://purl.org/dc/elements/1.1/"
   xmlns:cc="http://creativecommons.org/ns#"
   xmlns:rdf="http://www.w3.org/1999/02/22-rdf-syntax-ns#"
   xmlns:svg="http://www.w3.org/2000/svg"
   xmlns="http://www.w3.org/2000/svg"
   xmlns:sodipodi="http://sodipodi.sourceforge.net/DTD/sodipodi-0.dtd"
   xmlns:inkscape="http://www.inkscape.org/namespaces/inkscape"
   version="1.1"
   id="svg4730"
   width="1055"
   height="1036"
   viewBox="0 0 1055 1036"
   sodipodi:docname="webtoon-logo.svg"
   inkscape:version="0.92.5 (2060ec1f9f, 2020-04-08)">
  <metadata
     id="metadata4736">
    <rdf:RDF>
      <cc:Work
         rdf:about="">
        <dc:format>image/svg+xml</dc:format>
        <dc:type
           rdf:resource="http://purl.org/dc/dcmitype/StillImage" />
      </cc:Work>
    </rdf:RDF>
  </metadata>
  <defs
     id="defs4734" />
  <sodipodi:namedview
     pagecolor="#ffffff"
     bordercolor="#666666"
     borderopacity="1"
     objecttolerance="10"
     gridtolerance="10"
     guidetolerance="10"
     inkscape:pageopacity="0"
     inkscape:pageshadow="2"
     inkscape:window-width="2488"
     inkscape:window-height="1373"
     id="namedview4732"
     showgrid="false"
     showguides="false"
     inkscape:zoom="1.1689189"
     inkscape:cx="413.71554"
     inkscape:cy="525.62795"
     inkscape:window-x="72"
     inkscape:window-y="30"
     inkscape:window-maximized="1"
     inkscape:current-layer="svg4730" />
  <g
     inkscape:groupmode="layer"
     id="layer1"
     inkscape:label="Layer 1" />
  <g
     id="g5498"
     inkscape:export-xdpi="141.047"
     inkscape:export-ydpi="141.047"
     transform="matrix(3.0627382,0,0,3.0627382,365.90951,-1820.4538)">
    <path
       sodipodi:nodetypes="ccccccccccc"
       inkscape:connector-curvature="0"
       id="path4741"
       d="m 8.5549133,703.21387 93.2011167,-13.93843 -4.230018,44.73612 h 15.398848 l -6.39025,40.558 -48.209969,21.54297 -0.05189,-16.30624 -41.16292,6.39024 -17.40783705,-53.79661 17.35594205,0.20312 z"
       style="fill:#00dc64;fill-opacity:1;stroke:none;stroke-width:1px;stroke-linecap:butt;stroke-linejoin:miter;stroke-opacity:1" />
    <path
       inkscape:connector-curvature="0"
       id="path4743"
       d="m 24.34818,720.07859 4.83939,0.30246 2.268463,10.43493 3.478312,-11.19109 4.536928,-0.45369 2.873387,11.64478 3.780774,-11.64478 4.536928,-0.30246 -4.990621,18.90387 -5.595544,-0.30247 -2.722157,-9.52754 -3.17585,9.67877 -5.595544,-0.45369 z"
       style="fill:#ffffff;fill-opacity:1;stroke:none;stroke-width:1px;stroke-linecap:butt;stroke-linejoin:miter;stroke-opacity:1" />
    <path
       inkscape:connector-curvature="0"
       id="path4745"
       d="m 53.384518,717.81012 v 19.81125 l 13.913246,0.15124 0.151231,-3.93201 -9.67878,0.15123 v -4.08323 l 8.620163,-0.4537 v -3.78077 l -8.620163,0.30246 v -3.932 l 9.376318,-0.45369 -0.151231,-3.93201 z"
       style="fill:#ffffff;fill-opacity:1;stroke:none;stroke-width:1px;stroke-linecap:butt;stroke-linejoin:miter;stroke-opacity:1" />
    <path
       sodipodi:nodetypes="cccscssc"
       inkscape:connector-curvature="0"
       id="path4747"
       d="m 70.473614,717.35643 v 20.86987 l 12.961565,-0.0184 c 2.566474,0.10694 4.729421,-1.64155 4.7584,-4.66981 0.0443,-4.62867 -2.891735,-6.04924 -2.891735,-6.04924 0,0 2.435738,-1.98109 2.401348,-5.31143 -0.0443,-4.28951 -1.966002,-5.1235 -4.422392,-5.16779 -1.820765,-0.0328 -12.807186,0.34675 -12.807186,0.34675 z"
       style="fill:#ffffff;fill-opacity:1;stroke:none;stroke-width:1px;stroke-linecap:butt;stroke-linejoin:miter;stroke-opacity:1" />
    <path
       inkscape:connector-curvature="0"
       id="path4749"
       d="m 75.615465,720.98597 v 4.3857 c 0,0 6.654161,1.20985 6.50293,-2.4197 -0.151231,-3.62954 -6.50293,-1.966 -6.50293,-1.966 z"
       style="fill:#00dc64;fill-opacity:1;stroke:none;stroke-width:1px;stroke-linecap:butt;stroke-linejoin:miter;stroke-opacity:1" />
    <path
       inkscape:connector-curvature="0"
       id="path4751"
       d="m 75.917927,730.05983 v 4.08323 c 0,0 7.107854,0.90739 6.956623,-1.966 -0.151231,-2.87339 -6.956623,-2.11723 -6.956623,-2.11723 z"
       style="fill:#00dc64;fill-opacity:1;stroke:none;stroke-width:1px;stroke-linecap:butt;stroke-linejoin:miter;stroke-opacity:1" />
    <path
       inkscape:connector-curvature="0"
       id="path4753"
       d="m 16.484171,742.1583 0.151231,5.14185 6.351699,0.15124 0.453693,17.08909 5.898006,-0.15123 -0.15123,-16.6354 6.351699,-0.15123 -0.151231,-5.29309 z"
       style="fill:#ffffff;fill-opacity:1;stroke:none;stroke-width:1px;stroke-linecap:butt;stroke-linejoin:miter;stroke-opacity:1" />
    <ellipse
       ry="8.7364588"
       rx="8.7364578"
       cy="753.12256"
       cx="47.864586"
       id="path4755"
       style="opacity:1;fill:#00dc64;fill-opacity:1;stroke:#ffffff;stroke-width:4.83833504;stroke-linecap:round;stroke-linejoin:bevel;stroke-miterlimit:4;stroke-dasharray:none;stroke-opacity:1" />
    <ellipse
       ry="8.1181698"
       rx="7.8157072"
       cy="752.51758"
       cx="70.549232"
       id="path4755-3"
       style="opacity:1;fill:#00dc64;fill-opacity:1;stroke:#ffffff;stroke-width:4.41137266;stroke-linecap:round;stroke-linejoin:bevel;stroke-miterlimit:4;stroke-dasharray:none;stroke-opacity:1" />
    <path
       inkscape:connector-curvature="0"
       id="path4772"
       d="m 83.177012,761.36463 4.536928,-0.15123 0.15123,-8.92263 6.956623,8.7714 3.932004,-0.30246 0.453693,-16.63541 -3.932004,-0.15123 -0.453693,9.52755 -7.561546,-9.52755 H 82.87455 Z"
       style="fill:#ffffff;fill-opacity:1;stroke:none;stroke-width:1px;stroke-linecap:butt;stroke-linejoin:miter;stroke-opacity:1" />
  </g>
</svg>
